PathFileType	4	(X/Y/Z)	C:/Users/beibeiliu/ov580/test_trc\sequence.35_training_dense_right.trc
DataRate	CameraRate	NumFrames	NumMarkers	Units	OrigDataRate	OrigDataStartFrame	OrigNumFrames
120	120	10	19	mm	120	177	283
Frame#	Time	ThumbCMC			ThumbMCP			ThumbIP			ThumbTip			IndexMCP			IndexPIP			IndexTip			MiddleMCP			MiddlePIP			MiddleTip			RingMCP			RingPIP			RingTip			PinkyMCP			PinkyPIP			PinkyTip			BackHand1			BackHand2			BackHand3	
		X0	Y0	Z0	X1	Y1	Z1	X2	Y2	Z2	X3	Y3	Z3	X4	Y4	Z4	X5	Y5	Z5	X6	Y6	Z6	X7	Y7	Z7	X8	Y8	Z8	X9	Y9	Z9	X10	Y10	Z10	X11	Y11	Z11	X12	Y12	Z12	X13	Y13	Z13	X14	Y14	Z14	X15	Y15	Z15	X16	Y16	Z16	X17	Y17	Z17	X18	Y18	Z18	
176	1.46667	194.184	48.8432	125.518	181.709	61.0838	98.34	174.02	74.0871	78.5027	177.116	80.3232	59.7541	211.729	100.659	89.7457	196.832	104.723	68.6743	182.472	93.9382	51.1705	228.805	97.0986	78.8233	210.959	94.7724	55.3611	196.489	66.8084	56.4561	236.194	83.8162	72.6735	219.06	79.2786	56.4485	205.451	53.4435	67.9389	253.396	65.6103	74.9289	243.537	71.285	53.9934	219.746	62.6908	52.6343	247.109	53.2827	111.528	243.026	29.975	130.694	225.757	54.7915	133.512	
177	1.475	192.389	48.3804	125.636	179.331	60.1126	97.7866	179.649	74.1593	77.2088	172.087	81.9243	58.4791	208.716	102.842	91.126	199.407	103.091	64.7204	184.646	93.5173	48.9085	230.862	94.6832	81.1441	210.019	95.9818	55.1525	194.114	66.6207	56.731	241.088	79.5063	70.8587	220.92	76.6178	52.7111	205.664	55.2644	65.8475	254.767	61.8952	73.449	243.742	74.2518	55.9748	217.759	64.3574	56.9725	246.355	49.9587	115.079	244.649	29.2638	129.744	225.911	54.4351	135.932	
178	1.48333	195.924	49.2649	125.002	182.251	64.2154	95.0121	175.561	75.9282	76.8731	174.951	84.1754	57.1286	212.374	101.058	91.7789	202.363	105.066	65.8203	184.875	94.4535	46.4312	231.553	94.6515	79.1528	215.307	97.5273	54.0233	195.178	67.4718	56.6863	239.754	81.772	69.0187	223.336	75.3362	50.2517	207.384	55.7442	62.5445	253.163	62.0759	74.5658	244.343	73.2456	54.1504	220.421	64.6416	50.6895	245.984	50.8358	111.094	245.904	31.0015	126.776	228.783	54.4712	130.578	
179	1.49167	196.609	53.8472	123.392	185.104	63.315	96.3769	180.859	73.1108	78.6717	180.391	82.7608	57.5632	216.735	102.008	84.6334	201.221	105.493	65.2685	191.317	94.7776	46.9976	234.802	94.1101	78.4398	220.53	95.0249	51.5223	199.177	69.5511	53.0996	244.45	77.9569	67.3391	221.292	77.1482	51.6232	207.189	56.2602	65.1394	254.597	63.7833	70.7766	246.365	72.1629	53.3972	220.134	63.8717	50.0959	248.568	48.1269	109.597	245.193	28.0011	126.071	229.778	55.0696	131.93	
180	1.5	198.688	52.8093	123.425	183.827	62.8862	97.8898	182.508	76.4069	76.4196	177.968	84.9412	55.8543	220.119	99.311	88.2816	206.554	103.828	61.7032	188.771	96.7355	45.4993	235.796	94.4139	75.3191	219.006	95.6746	52.0435	199.427	69.5514	53.4461	243.032	79.3519	70.4977	222.25	74.6289	49.6403	208.102	58.3671	62.4657	255.898	58.7091	73.1923	248.437	70.635	51.1656	223.629	63.4991	48.069	252.111	50.3788	107.397	246.308	27.5313	128.399	231.639	54.9883	132.512	
181	1.50833	198.657	55.8829	122.532	185.237	66.7228	96.1259	181.835	76.0302	77.8171	182.355	84.4954	56.6139	219.487	101.637	87.9234	206.732	104.524	61.931	191.697	96.1661	46.408	239.149	92.3647	76.2949	221.512	94.8961	50.6459	197.396	72.2702	54.919	247.964	75.8221	68.546	225.898	74.626	49.2965	208.384	61.1059	65.01	259.238	58.9574	69.9177	248.694	70.3667	51.6846	226.665	68.21	46.676	248.209	50.0891	112.269	245.173	31.8812	128.102	231.079	54.5243	130.497	
182	1.51667	197.072	56.9144	125.025	185.935	65.1669	98.9184	182.865	81.6264	74.909	184.243	87.4927	54.5048	219.269	104.329	86.0187	209.043	105.264	62.6796	194.572	96.0847	46.7392	238.392	93.7769	78.8119	225.124	95.7797	51.7061	197.038	73.3624	55.5866	246.579	78.3899	72.433	226.097	76.712	49.9777	211.321	57.1994	64.7778	260.346	60.733	70.9609	249.432	71.5928	52.9994	227.562	70.0215	47.7029	251.33	53.0397	110.833	246.066	28.3855	127.166	232.148	57.6146	133.793	
183	1.525	200.33	55.4809	124.675	187.051	67.6658	97.2513	182.308	80.7129	78.0792	184.172	88.3279	55.6394	222.547	101.591	89.8677	206.928	107.413	66.7961	191.232	100.645	49.3358	240.196	93.5706	77.3818	222.454	96.4634	51.2832	200.893	71.9576	55.0574	247.395	81.3086	68.0558	224.313	77.5296	52.0789	210.489	60.6178	66.4511	259.762	57.4337	71.8183	250.742	70.3628	51.6116	223.363	68.7214	50.992	251.87	52.0391	111.507	245.935	29.1027	128.336	231.678	59.1717	133.006	
184	1.53333	198.811	59.1774	124.292	189.537	69.8024	96.8922	184.554	82.1529	76.8646	188.155	88.1157	57.1131	218.623	105.095	89.288	206.438	108.283	64.6105	192.911	100.038	47.8674	239.399	96.7885	76.5145	225.437	97.8411	53.0172	199.173	73.1205	55.0733	245.843	80.7136	71.4816	224.298	81.0233	53.9131	210.825	59.4702	66.4297	257.247	61.4265	73.9926	251.128	70.1992	50.1045	226.215	66.1267	47.9035	249.087	52.7096	112.013	244.732	34.7468	129.036	231.009	58.1387	132.276	
185	1.54167	199.124	56.5255	125.146	184.918	68.9051	99.2012	186.525	80.6883	78.5367	187.963	89.3061	56.473	219.085	106.312	87.9375	208.282	110.427	67.6135	190.924	98.5883	45.5179	236.833	101.637	77.8003	221.895	98.3815	52.487	201.451	77.5964	54.4815	246.026	83.9528	68.1859	229.512	81.6854	51.8264	209.088	64.3419	65.6844	256.771	63.1474	75.2198	248.632	74.4479	52.1595	226.761	67.5965	49.0384	249.818	55.7608	110.99	244.056	30.5665	128.834	230.117	58.0957	134.481	
